# xmcd CD database file
# Copyright (C) 1993-1996 Ti Kan
#
# Track frame offsets:
# 150
# 12980
# 27822
# 39837
# 53425
# 67042
# 80472
# 91752
# 104567
# 117435
# 128417
# 144805
# 160015
# 173372
# 189607
# 202535
# 218660
# 231110
# 245540
# 257885
#
# Disc length: 3659 seconds
#
# Revision: 0
# Processed by: cddbd v1.4PL0 Copyright (c) Steve Scherf et al.
# Submitted via: inCDius 1.1b5
#
DISCID=f20e4914
DTITLE=Janie Frickie - Celebration
DYEAR=1900
DGENRE=Country
TTITLE0=What're You Doing Tonight
TTITLE1=Please Help Me , I'm Falling In Love With You
TTITLE2=I'll Love Away Your Troubles For Awhile
TTITLE3=But Love Me
TTITLE4=Pass Me By If You're Only Passing Through
TTITLE5=Cry
TTITLE6=Down To My Last Broken Heart
TTITLE7=I'll Need Someone To Hold Me (When I Cry)
TTITLE8=Do Me With Love
TTITLE9=Don't Worry 'Bout Me Baby
TTITLE10=It Ain't Easy Bein' Easy
TTITLE11=You Don't Know Love
TTITLE12=He's A Heartache (Looking For A Place To Happen)
TTITLE13=Tell Me A Lie
TTITLE14=Your Heart's Not In It
TTITLE15=The First Word In Memory Is Me
TTITLE16=She's Single Again
TTITLE17=Somebody Else's Fire
TTITLE18=Easy To Please
TTITLE19=Always Have Always Will
EXTD=
EXTT0=
EXTT1=
EXTT2=
EXTT3=
EXTT4=
EXTT5=
EXTT6=
EXTT7=
EXTT8=
EXTT9=
EXTT10=
EXTT11=
EXTT12=
EXTT13=
EXTT14=
EXTT15=
EXTT16=
EXTT17=
EXTT18=
EXTT19=
PLAYORDER=
